HIERARCHY
ROOT Hips
{
	OFFSET 0.000000 97.167313 0.000000
	CHANNELS 6 Xposition Yposition Zposition Xrotation Yrotation Zrotation
	JOINT Spine
	{
		OFFSET 0.000000 13.784798 0.064400
		CHANNELS 3 Xrotation Yrotation Zrotation
		JOINT Spine1
		{
			OFFSET 0.000000 12.037903 0.404700
			CHANNELS 3 Xrotation Yrotation Zrotation
			JOINT Spine2
			{
				OFFSET 0.000000 17.795601 0.420200
				CHANNELS 3 Xrotation Yrotation Zrotation
				JOINT Neck
				{
					OFFSET 0.000000 39.131302 11.954600
					CHANNELS 3 Xrotation Yrotation Zrotation
					JOINT Head
					{
						OFFSET 0.000000 14.456192 15.627699
						CHANNELS 3 Xrotation Yrotation Zrotation
						JOINT HeadTop_End
						{
							OFFSET 0.000000 15.703506 7.603401
							CHANNELS 3 Xrotation Yrotation Zrotation
							End Site
							{
								OFFSET 0.000000 17.447403 0.000000
							}
						}
					}
				}
				JOINT LeftShoulder
				{
					OFFSET 17.399500 24.608795 1.168800
					CHANNELS 3 Xrotation Yrotation Zrotation
					JOINT LeftArm
					{
						OFFSET 18.980635 5.765305 1.818600
						CHANNELS 3 Xrotation Yrotation Zrotation
						JOINT LeftForeArm
						{
							OFFSET 49.290169 0.000000 0.000000
							CHANNELS 3 Xrotation Yrotation Zrotation
							JOINT LeftHand
							{
								OFFSET 31.562012 0.000000 0.000000
								CHANNELS 3 Xrotation Yrotation Zrotation
								JOINT LeftHandThumb1
								{
									OFFSET 6.133995 -4.388519 7.076070
									CHANNELS 3 Xrotation Yrotation Zrotation
									JOINT LeftHandThumb2
									{
										OFFSET 6.037666 -3.485840 3.485847
										CHANNELS 3 Xrotation Yrotation Zrotation
										JOINT LeftHandThumb3
										{
											OFFSET 6.496506 -3.750763 3.750761
											CHANNELS 3 Xrotation Yrotation Zrotation
											JOINT LeftHandThumb4
											{
												OFFSET 5.616882 -3.242905 3.242910
												CHANNELS 3 Xrotation Yrotation Zrotation
												End Site
												{
													OFFSET -1.254608 7.132141 0.375429
												}
											}
										}
									}
								}
								JOINT LeftHandPinky1
								{
									OFFSET 18.920792 -0.453171 -11.426712
									CHANNELS 3 Xrotation Yrotation Zrotation
									JOINT LeftHandPinky2
									{
										OFFSET 4.919586 0.000000 0.000000
										CHANNELS 3 Xrotation Yrotation Zrotation
										JOINT LeftHandPinky3
										{
											OFFSET 5.233047 0.000000 0.000000
											CHANNELS 3 Xrotation Yrotation Zrotation
											JOINT LeftHandPinky4
											{
												OFFSET 5.571716 0.000000 0.000000
												CHANNELS 3 Xrotation Yrotation Zrotation
												End Site
												{
													OFFSET -3.459808 4.342407 -0.466164
												}
											}
										}
									}
								}
								JOINT LeftHandRing1
								{
									OFFSET 22.726120 -0.094986 -6.500475
									CHANNELS 3 Xrotation Yrotation Zrotation
									JOINT LeftHandRing2
									{
										OFFSET 6.408615 0.000000 0.000000
										CHANNELS 3 Xrotation Yrotation Zrotation
										JOINT LeftHandRing3
										{
											OFFSET 6.150223 0.000000 0.000000
											CHANNELS 3 Xrotation Yrotation Zrotation
											JOINT LeftHandRing4
											{
												OFFSET 6.145386 0.000000 0.000000
												CHANNELS 3 Xrotation Yrotation Zrotation
												End Site
												{
													OFFSET -3.671402 4.923981 -0.202372
												}
											}
										}
									}
								}
								JOINT LeftHandMiddle1
								{
									OFFSET 23.373947 0.000000 0.000001
									CHANNELS 3 Xrotation Yrotation Zrotation
									JOINT LeftHandMiddle2
									{
										OFFSET 6.996567 0.000000 0.000000
										CHANNELS 3 Xrotation Yrotation Zrotation
										JOINT LeftHandMiddle3
										{
											OFFSET 7.015945 0.000000 0.000000
											CHANNELS 3 Xrotation Yrotation Zrotation
											JOINT LeftHandMiddle4
											{
												OFFSET 7.721573 0.000000 0.000000
												CHANNELS 3 Xrotation Yrotation Zrotation
												End Site
												{
													OFFSET -4.651108 6.158463 0.251582
												}
											}
										}
									}
								}
								JOINT LeftHandIndex1
								{
									OFFSET 21.310577 -0.490082 6.209344
									CHANNELS 3 Xrotation Yrotation Zrotation
									JOINT LeftHandIndex2
									{
										OFFSET 7.536453 0.000000 0.000000
										CHANNELS 3 Xrotation Yrotation Zrotation
										JOINT LeftHandIndex3
										{
											OFFSET 7.512344 0.000000 0.000000
											CHANNELS 3 Xrotation Yrotation Zrotation
											JOINT LeftHandIndex4
											{
												OFFSET 10.212402 0.000000 0.000001
												CHANNELS 3 Xrotation Yrotation Zrotation
												End Site
												{
													OFFSET -5.180801 8.690506 1.388433
												}
											}
										}
									}
								}
							}
						}
					}
				}
				JOINT RightShoulder
				{
					OFFSET -17.399500 24.608795 1.168800
					CHANNELS 3 Xrotation Yrotation Zrotation
					JOINT RightArm
					{
						OFFSET -18.980635 5.765305 1.818600
						CHANNELS 3 Xrotation Yrotation Zrotation
						JOINT RightForeArm
						{
							OFFSET -49.290169 0.000000 0.000000
							CHANNELS 3 Xrotation Yrotation Zrotation
							JOINT RightHand
							{
								OFFSET -31.562012 0.000000 0.000000
								CHANNELS 3 Xrotation Yrotation Zrotation
								JOINT RightHandThumb1
								{
									OFFSET -6.133995 -4.388519 7.076070
									CHANNELS 3 Xrotation Yrotation Zrotation
									JOINT RightHandThumb2
									{
										OFFSET -6.037666 -3.485840 3.485847
										CHANNELS 3 Xrotation Yrotation Zrotation
										JOINT RightHandThumb3
										{
											OFFSET -6.496506 -3.750763 3.750761
											CHANNELS 3 Xrotation Yrotation Zrotation
											JOINT RightHandThumb4
											{
												OFFSET -5.616882 -3.242905 3.242910
												CHANNELS 3 Xrotation Yrotation Zrotation
												End Site
												{
													OFFSET 1.254608 7.132141 0.375429
												}
											}
										}
									}
								}
								JOINT RightHandIndex1
								{
									OFFSET -21.310577 -0.490082 6.209344
									CHANNELS 3 Xrotation Yrotation Zrotation
									JOINT RightHandIndex2
									{
										OFFSET -7.536453 0.000000 0.000000
										CHANNELS 3 Xrotation Yrotation Zrotation
										JOINT RightHandIndex3
										{
											OFFSET -7.512344 0.000000 0.000000
											CHANNELS 3 Xrotation Yrotation Zrotation
											JOINT RightHandIndex4
											{
												OFFSET -10.212402 0.000000 0.000001
												CHANNELS 3 Xrotation Yrotation Zrotation
												End Site
												{
													OFFSET 5.180801 8.690506 1.388433
												}
											}
										}
									}
								}
								JOINT RightHandMiddle1
								{
									OFFSET -23.373947 0.000000 0.000001
									CHANNELS 3 Xrotation Yrotation Zrotation
									JOINT RightHandMiddle2
									{
										OFFSET -6.996567 0.000000 0.000000
										CHANNELS 3 Xrotation Yrotation Zrotation
										JOINT RightHandMiddle3
										{
											OFFSET -7.015945 0.000000 0.000000
											CHANNELS 3 Xrotation Yrotation Zrotation
											JOINT RightHandMiddle4
											{
												OFFSET -7.721573 0.000000 0.000000
												CHANNELS 3 Xrotation Yrotation Zrotation
												End Site
												{
													OFFSET 4.651108 6.158463 0.251582
												}
											}
										}
									}
								}
								JOINT RightHandRing1
								{
									OFFSET -22.726120 -0.094986 -6.500475
									CHANNELS 3 Xrotation Yrotation Zrotation
									JOINT RightHandRing2
									{
										OFFSET -6.408615 0.000000 0.000000
										CHANNELS 3 Xrotation Yrotation Zrotation
										JOINT RightHandRing3
										{
											OFFSET -6.150223 0.000000 0.000000
											CHANNELS 3 Xrotation Yrotation Zrotation
											JOINT RightHandRing4
											{
												OFFSET -6.145386 0.000000 0.000000
												CHANNELS 3 Xrotation Yrotation Zrotation
												End Site
												{
													OFFSET 3.671402 4.923981 -0.202372
												}
											}
										}
									}
								}
								JOINT RightHandPinky1
								{
									OFFSET -18.920792 -0.453171 -11.426712
									CHANNELS 3 Xrotation Yrotation Zrotation
									JOINT RightHandPinky2
									{
										OFFSET -4.919586 0.000000 0.000000
										CHANNELS 3 Xrotation Yrotation Zrotation
										JOINT RightHandPinky3
										{
											OFFSET -5.233047 0.000000 0.000000
											CHANNELS 3 Xrotation Yrotation Zrotation
											JOINT RightHandPinky4
											{
												OFFSET -5.571716 0.000000 0.000000
												CHANNELS 3 Xrotation Yrotation Zrotation
												End Site
												{
													OFFSET 3.459808 4.342407 -0.466164
												}
											}
										}
									}
								}
							}
						}
					}
				}
			}
		}
	}
	JOINT LeftUpLeg
	{
		OFFSET 19.899099 -7.885101 -3.429500
		CHANNELS 3 Xrotation Yrotation Zrotation
		JOINT LeftLeg
		{
			OFFSET 1.745560 -36.997807 10.304700
			CHANNELS 3 Xrotation Yrotation Zrotation
			JOINT LeftFoot
			{
				OFFSET -1.745558 -29.803308 -13.615400
				CHANNELS 3 Xrotation Yrotation Zrotation
				JOINT LeftToeBase
				{
					OFFSET 1.181900 -18.539904 15.226099
					CHANNELS 3 Xrotation Yrotation Zrotation
					JOINT LeftToe_End
					{
						OFFSET -0.863701 1.402801 16.534700
						CHANNELS 3 Xrotation Yrotation Zrotation
						End Site
						{
							OFFSET 0.000000 16.616566 0.000000
						}
					}
				}
			}
		}
	}
	JOINT RightUpLeg
	{
		OFFSET -19.899099 -7.885101 -3.429500
		CHANNELS 3 Xrotation Yrotation Zrotation
		JOINT RightLeg
		{
			OFFSET -1.745560 -36.997807 10.304700
			CHANNELS 3 Xrotation Yrotation Zrotation
			JOINT RightFoot
			{
				OFFSET 1.745558 -29.803308 -13.615400
				CHANNELS 3 Xrotation Yrotation Zrotation
				JOINT RightToeBase
				{
					OFFSET -1.181900 -18.539904 15.226099
					CHANNELS 3 Xrotation Yrotation Zrotation
					JOINT RightToe_End
					{
						OFFSET 0.863701 1.402801 16.534700
						CHANNELS 3 Xrotation Yrotation Zrotation
						End Site
						{
							OFFSET 0.000000 16.616566 0.000000
						}
					}
				}
			}
		}
	}
}
MOTION
Frames: 4
Frame Time: 0.033333
0.444582 88.104889 47.912285 4.352717 -0.361352 0.402055 2.072971 0.187837 -0.169591 4.569727 0.303147 -0.783029 4.568280 0.296337 -0.791999 -11.615711 -0.530291 1.202803 -22.785028 -0.427440 -2.077949 -0.000002 -0.000000 -0.000000 1.296770 -13.445863 -2.038491 -37.522829 4.911962 -61.053804 0.000099 -77.337556 0.000064 -35.851940 -6.292775 -15.028556 2.055981 -18.563575 27.022272 1.958300 17.891614 -24.457381 -10.684039 16.672692 0.874166 -0.000000 -0.000000 -0.000002 2.729620 13.182817 -14.413349 0.127399 1.216458 -11.958977 0.441114 2.232096 -22.355388 -0.000000 0.000000 -0.000006 2.049478 10.792377 -14.129542 0.217930 1.584592 -15.661129 0.404911 2.141967 -21.406340 -0.000000 -0.000001 0.000003 0.652980 4.957927 -21.829198 0.163334 1.375107 -13.547052 0.014740 -0.416016 4.063070 -0.000000 -0.000001 0.000006 -0.655209 -0.505793 -11.908016 0.116801 1.165155 -11.447515 0.313446 1.892383 -18.809173 -0.000001 -0.000000 -0.000001 5.373204 6.778118 -0.714602 -25.074437 1.607944 60.589795 -0.000271 88.077898 0.000238 -9.252705 2.721093 -26.317825 -2.168302 17.890796 -41.425394 3.553826 -24.337262 34.656421 -8.989057 -24.317306 -7.994590 -0.000000 0.000000 0.000002 2.060136 1.742692 6.025803 0.000014 -0.000008 0.000030 0.304766 -1.658640 20.821842 0.000000 -0.000003 -0.000002 0.248943 -5.219056 4.090656 0.019951 -0.430960 5.297824 0.000357 -0.058105 0.713350 0.000001 0.000002 -0.000001 -0.147562 -8.248226 -2.073882 0.047356 -0.663168 8.168493 0.374289 -1.830933 23.104698 -0.000002 -0.000001 -0.000003 -9.905370 -9.552843 7.536008 -0.000003 -0.005145 0.063161 0.058153 -0.734336 9.052336 -0.000000 -0.000000 0.000002 -12.914909 4.502871 11.986182 26.656587 1.261578 -1.251848 -17.000151 3.090441 -10.661879 -0.292333 0.000006 0.000003 0.000000 0.000001 0.000000 -21.471359 -5.410396 -12.354936 29.229801 -1.469739 0.980748 -11.254937 -2.608892 9.020821 -0.204915 0.000003 -0.000001 0.000000 0.000001 0.000000 
0.453701 88.312309 47.831207 4.385772 -0.585701 0.540735 1.972088 0.194701 -0.272758 4.474031 0.322559 -0.929729 4.471976 0.313880 -0.940623 -11.573733 -0.442274 1.029278 -23.236725 -0.331776 -1.648834 0.000000 -0.000000 0.000000 1.226523 -12.689119 -2.513055 -39.978784 13.993529 -57.614729 0.000205 -80.434705 0.000201 -29.519511 -5.199538 -3.459725 4.481677 -24.537936 25.166474 2.240527 18.104574 -24.513061 -15.206400 5.962716 -3.049933 0.000000 -0.000001 -0.000001 2.525629 14.439066 -11.618857 0.060402 0.840010 -8.225955 0.261845 1.733486 -17.177316 -0.000001 0.000001 0.000001 1.750015 10.882626 -11.673188 0.152767 1.330451 -13.099166 0.327844 1.934066 -19.240050 0.000001 0.000000 0.000003 0.706954 5.106757 -21.334186 0.116022 1.161324 -11.409225 0.012904 0.389017 -3.798934 0.000000 0.000001 0.000006 -0.880043 -0.508190 -14.822803 0.091748 1.033905 -10.143219 0.225820 1.612458 -15.944033 -0.000001 0.000003 0.000001 5.740979 5.390519 -2.877994 -25.306930 -10.501062 64.283958 -0.004238 90.680610 0.004021 -14.598192 6.463572 -42.268636 -8.208053 20.865760 -36.422243 3.543098 -24.327384 34.654273 -7.939426 -28.000939 -8.097915 -0.000000 -0.000001 0.000001 1.915922 2.422050 -0.220638 0.007504 -0.264671 3.250711 0.147901 -1.165568 14.463247 0.000000 -0.000001 -0.000001 -0.164129 -4.894260 -4.446564 0.059209 -0.741071 9.136230 0.006511 -0.246549 3.027998 0.000001 0.000000 -0.000001 -0.735954 -8.724361 -6.948599 0.068197 -0.794976 9.807185 0.237181 -1.468766 18.345876 -0.000002 -0.000001 -0.000003 -11.665257 -9.551775 0.355231 0.000009 -0.005146 0.063144 0.019824 -0.429647 5.281810 0.000002 -0.000000 0.000006 -12.617297 4.624121 11.790407 25.972822 1.535201 -1.246604 -16.601475 3.038854 -10.657779 -0.292834 -0.000003 -0.000001 0.000000 -0.000000 0.000000 -21.495044 -5.343444 -12.393923 28.744766 -1.369145 0.959674 -10.827756 -2.541656 8.929385 -0.205398 0.000002 0.000000 0.000000 0.000001 -0.000000 
0.459301 88.495773 47.712814 4.435378 -0.914204 0.563192 1.865186 0.223092 -0.366658 4.362967 0.373949 -1.039051 4.361022 0.363630 -1.048786 -11.518144 -0.362674 0.769670 -23.476596 -0.380652 -1.314824 -0.000002 0.000000 -0.000000 1.206728 -12.704610 -2.929084 -43.516163 23.522379 -55.451253 -0.000212 -83.380654 -0.000189 -25.451875 -2.889114 12.184724 7.428834 -29.729180 23.350480 2.423345 18.244060 -24.549305 -15.430389 4.701495 -3.497983 0.000001 0.000001 -0.000002 2.607812 15.308689 -11.088627 0.026666 0.558878 -5.461981 0.150508 1.320734 -13.001695 0.000003 -0.000001 0.000001 1.533908 10.756824 -10.232980 0.106164 1.111369 -10.912384 0.278746 1.787223 -17.727315 -0.000001 0.000001 -0.000002 0.723188 5.195446 -20.102239 0.086703 1.005323 -9.859896 0.135635 1.254651 -12.340425 0.000000 -0.000002 -0.000001 -1.013098 -0.469061 -16.567618 0.074499 0.932352 -9.137702 0.144484 1.294382 -12.737920 0.000000 0.000003 -0.000001 5.656548 6.579502 -3.504863 -29.608621 -24.544596 67.830916 -0.000149 95.010609 0.000181 -16.391103 14.027367 -56.851746 -13.205059 23.181616 -31.665379 3.546686 -24.328970 34.654174 -7.509865 -29.698472 -8.387749 -0.000000 -0.000002 0.000001 2.170098 3.155583 -5.173307 0.044117 -0.640134 7.883125 0.078021 -0.849831 10.491556 0.000003 0.000000 0.000001 -0.450117 -4.589942 -10.467625 0.096178 -0.942684 11.653297 0.019551 -0.426805 5.246660 0.000000 0.000001 -0.000009 -1.126005 -8.881172 -9.864157 0.093576 -0.929861 11.492552 0.134923 -1.114065 13.810905 -0.000000 0.000003 -0.000003 -11.984921 -9.250432 -4.742411 -0.000001 -0.005152 0.063156 0.015724 -0.382607 4.702051 -0.000000 -0.000001 0.000004 -12.407003 4.699384 11.749961 25.474417 1.866933 -1.250139 -16.300685 3.029404 -10.697200 -0.293290 -0.000001 -0.000001 0.000000 -0.000001 -0.000000 -21.581810 -5.300272 -12.274370 28.197126 -1.207286 0.932589 -10.297532 -2.457266 8.790948 -0.205889 0.000004 -0.000001 0.000000 -0.000001 -0.000000 
0.463812 88.633133 47.559666 4.408983 -1.318091 0.424063 1.777836 0.263248 -0.475308 4.265802 0.447917 -1.101398 4.264749 0.435268 -1.108280 -11.406337 -0.325074 0.579550 -23.427487 -0.503112 -1.154128 0.000002 -0.000000 0.000000 1.242004 -13.479637 -3.081538 -46.407512 30.092509 -55.775905 0.000145 -85.561937 0.000088 -23.253818 -3.393866 24.970419 8.808604 -29.990005 23.734023 2.455843 18.283844 -24.553900 -12.028671 13.062373 1.558614 0.000000 -0.000000 -0.000001 2.357357 15.397929 -10.528681 0.010774 0.355597 -3.472158 0.103508 1.097512 -10.774675 -0.000003 0.000000 0.000005 1.300812 10.427523 -8.890295 0.064622 0.868654 -8.508408 0.270878 1.762476 -17.473892 -0.000001 0.000001 0.000002 0.680277 5.158102 -18.370931 0.038185 0.668430 -6.537128 0.239925 1.661024 -16.437945 -0.000001 -0.000001 0.000001 -0.811924 -0.502908 -15.530698 0.042955 0.709012 -6.936051 0.061497 0.847571 -8.300455 -0.000000 0.000001 0.000001 5.135640 9.790666 -2.278752 -36.425214 -35.409415 68.483636 0.000151 98.939060 -0.000146 -16.534799 22.144073 -66.683594 -14.383426 23.508362 -30.100637 3.539796 -24.349652 34.353755 -7.383213 -28.566744 -9.106348 0.000001 0.000001 -0.000000 2.935397 3.949158 -8.961463 0.070358 -0.807327 9.961145 0.051528 -0.691692 8.522794 -0.000001 0.000000 0.000002 -0.578534 -4.307764 -13.769910 0.094579 -0.934763 11.553916 0.014675 -0.369850 4.544998 -0.000003 0.000001 -0.000008 -1.226703 -8.596114 -11.017549 0.091726 -0.920848 11.379613 0.052855 -0.700361 8.630239 0.000005 -0.000001 -0.000003 -10.796145 -9.070017 -7.221094 0.000018 -0.013020 0.159863 0.031009 -0.537108 6.608140 0.000003 -0.000000 0.000002 -12.238420 4.721470 11.929254 25.273310 2.207552 -1.264639 -16.172302 3.067600 -10.795573 -0.293710 0.000006 -0.000003 0.000000 0.000000 -0.000000 -21.612795 -5.304904 -11.960840 27.627741 -0.995080 0.903903 -9.722842 -2.368013 8.616265 -0.206385 0.000006 -0.000002 0.000000 0.000001 0.000000 
